<svg xmlns="http://www.w3.org/2000/svg" viewBox="0 0 120 105">
  <g fill="#1a2e1a">
    <!-- Large palm trunk -->
    <path d="M42,92 C41,76 38,58 35,38 C33,22 34,10 38,4 C40,10 41,22 42,38 C43,58 45,76 45,92 Z"/>

    <!-- Large palm fronds -->
    <path d="M38,6 C30,10 18,8 8,14 C12,22 28,18 36,14 Z"/>
    <path d="M38,6 C28,0 14,-2 6,4 C10,14 26,12 36,10 Z"/>
    <path d="M38,6 C34,-2 30,-8 26,-6 C24,4 30,10 36,10 Z"/>
    <path d="M38,6 C42,-2 48,-6 52,-2 C52,8 44,10 38,10 Z"/>
    <path d="M38,6 C48,4 56,8 58,16 C52,22 42,14 38,12 Z"/>
    <path d="M38,6 C50,14 56,22 54,32 C46,30 40,18 38,12 Z"/>

    <!-- Small palm trunk -->
    <path d="M74,87 C73,74 72,62 71,50 C70,40 71,30 74,24 C76,30 76,40 76,50 C76,62 76,74 76,87 Z"/>

    <!-- Small palm fronds -->
    <path d="M74,26 C66,22 56,22 52,28 C54,34 66,32 72,30 Z"/>
    <path d="M74,26 C68,18 60,14 56,18 C58,26 68,28 72,28 Z"/>
    <path d="M74,26 C72,18 72,12 70,10 C68,16 70,24 72,28 Z"/>
    <path d="M74,26 C80,18 88,18 90,24 C88,30 80,30 72,28 Z"/>
    <path d="M74,26 C82,28 88,34 88,42 C80,42 74,34 72,30 Z"/>

    <!-- Ground mound -->
    <ellipse cx="57" cy="93" rx="32" ry="7"/>
  </g>
</svg>
